<?xml version="1.0" standalone="no"?>
<!DOCTYPE svg PUBLIC "-//W3C//DTD SVG 20010904//EN"
 "http://www.w3.org/TR/2001/REC-SVG-20010904/DTD/svg10.dtd">
<svg version="1.0" xmlns="http://www.w3.org/2000/svg"
 width="700.000000pt" height="700.000000pt" viewBox="0 0 700.000000 700.000000"
 preserveAspectRatio="xMidYMid meet">
<metadata>
Created by potrace 1.14, written by Peter Selinger 2001-2017
</metadata>
<g transform="translate(0.000000,700.000000) scale(0.100000,-0.100000)"
fill="#000000" stroke="none">
<path d="M3190 6834 c-355 -42 -501 -71 -760 -151 -400 -124 -775 -322 -1115
-591 -154 -122 -445 -415 -558 -560 -406 -528 -630 -1101 -686 -1757 -27 -313
7 -718 89 -1045 129 -515 383 -984 763 -1409 110 -123 167 -172 382 -331 375
-278 480 -351 581 -403 387 -197 818 -323 1259 -368 154 -15 526 -15 680 0
1135 115 2118 748 2666 1716 213 376 344 784 400 1240 17 133 17 551 1 690
-61 517 -219 967 -492 1401 -135 215 -290 403 -502 609 -147 143 -169 160
-454 350 -208 139 -345 223 -449 275 -310 155 -662 261 -1045 316 -110 15
-668 29 -760 18z m700 -543 c141 -21 326 -58 348 -70 8 -4 -65 -30 -170 -60
-403 -117 -979 -319 -1378 -486 -751 -313 -1386 -669 -1785 -1000 -49 -41 -91
-73 -93 -71 -2 2 20 49 48 105 276 551 675 961 1224 1260 342 186 740 304
1147 340 157 14 501 5 659 -18z m1226 -459 c244 -160 491 -384 662 -600 123
-155 124 -142 -17 -142 -198 0 -341 -37 -578 -150 -337 -160 -755 -457 -1210
-857 -217 -190 -223 -195 -223 -187 0 3 49 90 109 193 407 699 568 1098 574
1425 2 113 -8 144 -64 190 -17 15 -30 29 -28 31 4 3 297 88 499 144 58 16 117
29 131 30 16 1 68 -27 145 -77z m-1426 -360 c-35 -31 -254 -230 -485 -442
-846 -774 -1159 -1036 -1547 -1293 -255 -170 -499 -277 -630 -277 -116 0 -188
97 -174 233 11 111 76 216 230 376 285 293 774 617 1411 931 320 158 514 244
895 394 162 64 304 121 315 126 50 22 45 5 -15 -48z m-121 -794 c-209 -413
-830 -1416 -1434 -2318 -190 -283 -519 -762 -598 -870 l-18 -25 -127 130 c-70
72 -158 168 -195 215 -178 221 -348 522 -440 780 -46 128 -123 417 -114 426 3
3 16 -1 29 -10 12 -8 53 -26 90 -40 344 -130 883 60 1506 529 330 248 614 505
1028 929 159 163 290 296 292 296 1 0 -7 -19 -19 -42z m2061 -261 c65 -43 75
-75 74 -232 0 -125 -3 -148 -28 -220 -106 -309 -330 -599 -534 -693 -107 -49
-310 -50 -417 -3 -24 10 -77 51 -119 89 -133 124 -245 157 -380 112 -75 -25
-167 -88 -214 -148 -69 -87 -81 -164 -42 -291 12 -41 20 -88 17 -105 -2 -17
-30 -98 -62 -181 -95 -250 -172 -544 -207 -790 -16 -120 -16 -429 1 -525 39
-220 137 -392 275 -484 62 -41 188 -86 243 -86 187 -1 -205 -94 -508 -121
-179 -16 -492 -6 -674 21 -323 48 -615 139 -900 283 l-126 62 51 74 c28 41
230 347 448 680 218 333 423 642 455 686 75 102 556 582 782 779 421 368 904
734 1180 893 87 50 239 127 308 155 173 71 315 88 377 45z m729 -524 c19 -128
25 -478 12 -619 -37 -382 -131 -688 -320 -1042 l-76 -144 -125 -77 c-412 -255
-546 -330 -710 -396 -217 -87 -460 -131 -583 -105 -99 20 -161 96 -187 228
-18 88 -7 329 20 454 42 198 158 548 193 585 9 9 26 8 72 -4 39 -10 106 -15
190 -15 108 0 147 4 227 25 254 67 502 216 739 445 207 200 366 416 474 646
28 58 53 105 56 106 3 0 11 -39 18 -87z"/>
</g>
</svg>
